<?xml version="1.0" encoding="UTF-8" standalone="no"?>
<!DOCTYPE svg PUBLIC "-//W3C//DTD SVG 1.1//EN"
 "http://www.w3.org/Graphics/SVG/1.1/DTD/svg11.dtd">
<!-- Generated by graphviz version 11.0.0 (20240428.1522)
 -->
<!-- Title: GDALG Workflow Pages: 1 -->
<svg width="234pt" height="496pt"
 viewBox="0.00 0.00 234.20 496.20" xmlns="http://www.w3.org/2000/svg" xmlns:xlink="http://www.w3.org/1999/xlink">
<g id="graph0" class="graph" transform="scale(1 1) rotate(0) translate(57.6 438.6)">
<title>GDALG Workflow</title>
<!-- 0 -->
<g id="node1" class="node">
<title>0</title>
<g id="a_node1"><a xlink:href="https://gdal.org/en/latest/programs/gdal_raster_read.html" xlink:title="https://gdal.org/en/latest/programs/gdal_raster_read.html" target="_blank">
<polygon fill="#ffdd99" stroke="none" points="30,-353.5 30,-381 89,-381 89,-353.5 30,-353.5"/>
<polygon fill="none" stroke="black" points="30,-353.5 30,-381 89,-381 89,-353.5 30,-353.5"/>
<text text-anchor="start" x="44.5" y="-363.6" font-family="Courier,monospace" font-weight="bold" font-size="12.00">read</text>
<polygon fill="none" stroke="black" points="30,-326 30,-353.5 89,-353.5 89,-326 30,-326"/>
<text text-anchor="start" x="37" y="-335.1" font-family="Courier,monospace" font-size="12.00">in.tif</text>
</a>
</g>
</g>
<!-- 1 -->
<g id="node2" class="node">
<title>1</title>
<g id="a_node2"><a xlink:href="https://gdal.org/en/latest/programs/gdal_raster_slope.html" xlink:title="https://gdal.org/en/latest/programs/gdal_raster_slope.html" target="_blank">
<polygon fill="#ffdd99" stroke="none" points="0,-190.5 0,-218 119,-218 119,-190.5 0,-190.5"/>
<polygon fill="none" stroke="black" points="0,-190.5 0,-218 119,-218 119,-190.5 0,-190.5"/>
<text text-anchor="start" x="40.75" y="-200.6" font-family="Courier,monospace" font-weight="bold" font-size="12.00">slope</text>
<polygon fill="none" stroke="black" points="0,-163 0,-190.5 119,-190.5 119,-163 0,-163"/>
<text text-anchor="start" x="7" y="-172.1" font-family="Courier,monospace" font-size="12.00">&#45;&#45;unit percent</text>
</a>
</g>
</g>
<!-- 0&#45;&gt;1 -->
<g id="edge1" class="edge">
<title>0&#45;&gt;1</title>
<path fill="none" stroke="black" d="M59.5,-326.27C59.5,-299.92 59.5,-259.05 59.5,-229.22"/>
<polygon fill="black" stroke="black" points="63,-229.5 59.5,-219.5 56,-229.5 63,-229.5"/>
</g>
<!-- 2 -->
<g id="node3" class="node">
<title>2</title>
<g id="a_node3"><a xlink:href="https://gdal.org/en/latest/programs/gdal_raster_write.html" xlink:title="https://gdal.org/en/latest/programs/gdal_raster_write.html" target="_blank">
<polygon fill="#ffdd99" stroke="none" points="26.25,-27.5 26.25,-55 92.75,-55 92.75,-27.5 26.25,-27.5"/>
<polygon fill="none" stroke="black" points="26.25,-27.5 26.25,-55 92.75,-55 92.75,-27.5 26.25,-27.5"/>
<text text-anchor="start" x="40.75" y="-37.6" font-family="Courier,monospace" font-weight="bold" font-size="12.00">write</text>
<polygon fill="none" stroke="black" points="26.25,0 26.25,-27.5 92.75,-27.5 92.75,0 26.25,0"/>
<text text-anchor="start" x="33.25" y="-9.1" font-family="Courier,monospace" font-size="12.00">out.tif</text>
</a>
</g>
</g>
<!-- 1&#45;&gt;2 -->
<g id="edge2" class="edge">
<title>1&#45;&gt;2</title>
<path fill="none" stroke="black" d="M59.5,-163.27C59.5,-136.92 59.5,-96.05 59.5,-66.22"/>
<polygon fill="black" stroke="black" points="63,-66.5 59.5,-56.5 56,-66.5 63,-66.5"/>
</g>
</g>
</svg>
