<?xml version="1.0" encoding="UTF-8" standalone="no"?>
<!DOCTYPE svg PUBLIC "-//W3C//DTD SVG 1.1//EN"
 "http://www.w3.org/Graphics/SVG/1.1/DTD/svg11.dtd">
<!-- Generated by graphviz version 11.0.0 (20240428.1522)
 -->
<!-- Title: GDALG Workflow Pages: 1 -->
<svg width="363pt" height="488pt"
 viewBox="0.00 0.00 362.75 487.50" xmlns="http://www.w3.org/2000/svg" xmlns:xlink="http://www.w3.org/1999/xlink">
<g id="graph0" class="graph" transform="scale(1 1) rotate(0) translate(4 483.5)">
<title>GDALG Workflow</title>
<polygon fill="white" stroke="none" points="-4,4 -4,-483.5 358.75,-483.5 358.75,4 -4,4"/>
<!-- 0 -->
<g id="node1" class="node">
<title>0</title>
<polygon fill="#cfe2ff" stroke="none" points="57,-449 57,-479.5 110,-479.5 110,-449 57,-449"/>
<polygon fill="none" stroke="black" points="57,-449 57,-479.5 110,-479.5 110,-449 57,-449"/>
<text text-anchor="start" x="67.75" y="-460.2" font-family="Helvetica,sans-Serif" font-weight="bold" font-size="14.00">read</text>
<polygon fill="none" stroke="black" points="57,-418.5 57,-449 110,-449 110,-418.5 57,-418.5"/>
<text text-anchor="start" x="64" y="-428.7" font-family="Helvetica,sans-Serif" font-size="14.00">n43.tif</text>
</g>
<!-- 1 -->
<g id="node2" class="node">
<title>1</title>
<g id="a_node2"><a xlink:href="https://gdal.org/en/latest/programs/gdal_raster_color_map.html" xlink:title="https://gdal.org/en/latest/programs/gdal_raster_color_map.html" target="_blank">
<polygon fill="#cfe2ff" stroke="none" points="0,-352 0,-382.5 167,-382.5 167,-352 0,-352"/>
<polygon fill="none" stroke="black" points="0,-352 0,-382.5 167,-382.5 167,-352 0,-352"/>
<text text-anchor="start" x="48.25" y="-363.2" font-family="Helvetica,sans-Serif" font-weight="bold" font-size="14.00">color&#45;map</text>
<polygon fill="none" stroke="black" points="0,-321.5 0,-352 167,-352 167,-321.5 0,-321.5"/>
<text text-anchor="start" x="7" y="-331.7" font-family="Helvetica,sans-Serif" font-size="14.00">&#45;&#45;color&#45;map color_file.txt</text>
</a>
</g>
</g>
<!-- 0&#45;&gt;1 -->
<g id="edge1" class="edge">
<title>0&#45;&gt;1</title>
<path fill="none" stroke="black" d="M83.5,-418.72C83.5,-410.78 83.5,-402.03 83.5,-393.58"/>
<polygon fill="black" stroke="black" points="87,-393.86 83.5,-383.86 80,-393.86 87,-393.86"/>
</g>
<!-- 2 -->
<g id="node3" class="node">
<title>2</title>
<polygon fill="#cfe2ff" stroke="none" points="66,-255 66,-285.5 101,-285.5 101,-255 66,-255"/>
<polygon fill="none" stroke="black" points="66,-255 66,-285.5 101,-285.5 101,-255 66,-255"/>
<text text-anchor="start" x="73" y="-266.2" font-family="Helvetica,sans-Serif" font-weight="bold" font-size="14.00">tee</text>
</g>
<!-- 1&#45;&gt;2 -->
<g id="edge2" class="edge">
<title>1&#45;&gt;2</title>
<path fill="none" stroke="black" d="M83.5,-321.76C83.5,-313.49 83.5,-304.57 83.5,-296.55"/>
<polygon fill="black" stroke="black" points="87,-296.81 83.5,-286.81 80,-296.81 87,-296.81"/>
</g>
<!-- 3 -->
<g id="node4" class="node">
<title>3</title>
<polygon fill="#cfe2ff" stroke="none" points="14.5,-188.5 14.5,-219 94.5,-219 94.5,-188.5 14.5,-188.5"/>
<polygon fill="none" stroke="black" points="14.5,-188.5 14.5,-219 94.5,-219 94.5,-188.5 14.5,-188.5"/>
<text text-anchor="start" x="37.62" y="-199.7" font-family="Helvetica,sans-Serif" font-weight="bold" font-size="14.00">write</text>
<polygon fill="none" stroke="black" points="14.5,-158 14.5,-188.5 94.5,-188.5 94.5,-158 14.5,-158"/>
<text text-anchor="start" x="21.5" y="-168.2" font-family="Helvetica,sans-Serif" font-size="14.00">colored.tif</text>
<polygon fill="none" stroke="black" points="14.5,-127.5 14.5,-158 94.5,-158 94.5,-127.5 14.5,-127.5"/>
<text text-anchor="start" x="21.5" y="-137.7" font-family="Helvetica,sans-Serif" font-size="14.00">&#45;&#45;overwrite</text>
</g>
<!-- 2&#45;&gt;3 -->
<g id="edge3" class="edge">
<title>2&#45;&gt;3</title>
<path fill="none" stroke="black" d="M79.22,-255.23C77.07,-248.18 74.31,-239.13 71.41,-229.65"/>
<polygon fill="black" stroke="black" points="74.82,-228.83 68.55,-220.29 68.13,-230.87 74.82,-228.83"/>
</g>
<!-- 4 -->
<g id="node5" class="node">
<title>4</title>
<g id="a_node5"><a xlink:href="https://gdal.org/en/latest/programs/gdal_raster_blend.html" xlink:title="https://gdal.org/en/latest/programs/gdal_raster_blend.html" target="_blank">
<polygon fill="#cfe2ff" stroke="none" points="112.88,-188.5 112.88,-219 252.12,-219 252.12,-188.5 112.88,-188.5"/>
<polygon fill="none" stroke="black" points="112.88,-188.5 112.88,-219 252.12,-219 252.12,-188.5 112.88,-188.5"/>
<text text-anchor="start" x="163" y="-199.7" font-family="Helvetica,sans-Serif" font-weight="bold" font-size="14.00">blend</text>
<polygon fill="none" stroke="black" points="112.88,-158 112.88,-188.5 252.12,-188.5 252.12,-158 112.88,-158"/>
<text text-anchor="start" x="119.88" y="-168.2" font-family="Helvetica,sans-Serif" font-size="14.00">&#45;&#45;operator hsv&#45;value</text>
<polygon fill="none" stroke="black" points="112.88,-127.5 112.88,-158 252.12,-158 252.12,-127.5 112.88,-127.5"/>
<text text-anchor="start" x="119.88" y="-137.7" font-family="Helvetica,sans-Serif" font-size="14.00">&#45;&#45;overlay</text>
</a>
</g>
</g>
<!-- 2&#45;&gt;4 -->
<g id="edge4" class="edge">
<title>2&#45;&gt;4</title>
<path fill="none" stroke="black" d="M98.11,-255.23C106.24,-247.42 116.94,-237.16 127.97,-226.57"/>
<polygon fill="black" stroke="black" points="130.15,-229.34 134.94,-219.89 125.3,-224.28 130.15,-229.34"/>
</g>
<!-- 9 -->
<g id="node10" class="node">
<title>9</title>
<polygon fill="#cfe2ff" stroke="none" points="114,-61 114,-91.5 251,-91.5 251,-61 114,-61"/>
<polygon fill="none" stroke="black" points="114,-61 114,-91.5 251,-91.5 251,-61 114,-61"/>
<text text-anchor="start" x="165.62" y="-72.2" font-family="Helvetica,sans-Serif" font-weight="bold" font-size="14.00">write</text>
<polygon fill="none" stroke="black" points="114,-30.5 114,-61 251,-61 251,-30.5 114,-30.5"/>
<text text-anchor="start" x="121" y="-40.7" font-family="Helvetica,sans-Serif" font-size="14.00">colored&#45;hillshade.tif</text>
<polygon fill="none" stroke="black" points="114,0 114,-30.5 251,-30.5 251,0 114,0"/>
<text text-anchor="start" x="121" y="-10.2" font-family="Helvetica,sans-Serif" font-size="14.00">&#45;&#45;overwrite</text>
</g>
<!-- 4&#45;&gt;9 -->
<g id="edge9" class="edge">
<title>4&#45;&gt;9</title>
<path fill="none" stroke="black" d="M182.5,-127.65C182.5,-119.51 182.5,-110.93 182.5,-102.52"/>
<polygon fill="black" stroke="black" points="186,-102.72 182.5,-92.72 179,-102.72 186,-102.72"/>
</g>
<!-- 5 -->
<g id="node6" class="node">
<title>5</title>
<polygon fill="#cfe2ff" stroke="none" points="256,-449 256,-479.5 309,-479.5 309,-449 256,-449"/>
<polygon fill="none" stroke="black" points="256,-449 256,-479.5 309,-479.5 309,-449 256,-449"/>
<text text-anchor="start" x="266.75" y="-460.2" font-family="Helvetica,sans-Serif" font-weight="bold" font-size="14.00">read</text>
<polygon fill="none" stroke="black" points="256,-418.5 256,-449 309,-449 309,-418.5 256,-418.5"/>
<text text-anchor="start" x="263" y="-428.7" font-family="Helvetica,sans-Serif" font-size="14.00">n43.tif</text>
</g>
<!-- 6 -->
<g id="node7" class="node">
<title>6</title>
<g id="a_node7"><a xlink:href="https://gdal.org/en/latest/programs/gdal_raster_hillshade.html" xlink:title="https://gdal.org/en/latest/programs/gdal_raster_hillshade.html" target="_blank">
<polygon fill="#cfe2ff" stroke="none" points="244,-352 244,-382.5 321,-382.5 321,-352 244,-352"/>
<polygon fill="none" stroke="black" points="244,-352 244,-382.5 321,-382.5 321,-352 244,-352"/>
<text text-anchor="start" x="251" y="-363.2" font-family="Helvetica,sans-Serif" font-weight="bold" font-size="14.00">hillshade</text>
<polygon fill="none" stroke="black" points="244,-321.5 244,-352 321,-352 321,-321.5 244,-321.5"/>
<text text-anchor="start" x="251" y="-331.7" font-family="Helvetica,sans-Serif" font-size="14.00">&#45;z 30</text>
</a>
</g>
</g>
<!-- 5&#45;&gt;6 -->
<g id="edge5" class="edge">
<title>5&#45;&gt;6</title>
<path fill="none" stroke="black" d="M282.5,-418.72C282.5,-410.78 282.5,-402.03 282.5,-393.58"/>
<polygon fill="black" stroke="black" points="286,-393.86 282.5,-383.86 279,-393.86 286,-393.86"/>
</g>
<!-- 7 -->
<g id="node8" class="node">
<title>7</title>
<polygon fill="#cfe2ff" stroke="none" points="265,-255 265,-285.5 300,-285.5 300,-255 265,-255"/>
<polygon fill="none" stroke="black" points="265,-255 265,-285.5 300,-285.5 300,-255 265,-255"/>
<text text-anchor="start" x="272" y="-266.2" font-family="Helvetica,sans-Serif" font-weight="bold" font-size="14.00">tee</text>
</g>
<!-- 6&#45;&gt;7 -->
<g id="edge6" class="edge">
<title>6&#45;&gt;7</title>
<path fill="none" stroke="black" d="M282.5,-321.76C282.5,-313.49 282.5,-304.57 282.5,-296.55"/>
<polygon fill="black" stroke="black" points="286,-296.81 282.5,-286.81 279,-296.81 286,-296.81"/>
</g>
<!-- 7&#45;&gt;4 -->
<g id="edge8" class="edge">
<title>7&#45;&gt;4</title>
<path fill="none" stroke="black" d="M267.74,-255.23C259.53,-247.42 248.72,-237.16 237.58,-226.57"/>
<polygon fill="black" stroke="black" points="240.19,-224.23 230.53,-219.88 235.37,-229.31 240.19,-224.23"/>
</g>
<!-- 8 -->
<g id="node9" class="node">
<title>8</title>
<polygon fill="#cfe2ff" stroke="none" points="270.25,-188.5 270.25,-219 354.75,-219 354.75,-188.5 270.25,-188.5"/>
<polygon fill="none" stroke="black" points="270.25,-188.5 270.25,-219 354.75,-219 354.75,-188.5 270.25,-188.5"/>
<text text-anchor="start" x="295.62" y="-199.7" font-family="Helvetica,sans-Serif" font-weight="bold" font-size="14.00">write</text>
<polygon fill="none" stroke="black" points="270.25,-158 270.25,-188.5 354.75,-188.5 354.75,-158 270.25,-158"/>
<text text-anchor="start" x="277.25" y="-168.2" font-family="Helvetica,sans-Serif" font-size="14.00">hillshade.tif</text>
<polygon fill="none" stroke="black" points="270.25,-127.5 270.25,-158 354.75,-158 354.75,-127.5 270.25,-127.5"/>
<text text-anchor="start" x="277.25" y="-137.7" font-family="Helvetica,sans-Serif" font-size="14.00">&#45;&#45;overwrite</text>
</g>
<!-- 7&#45;&gt;8 -->
<g id="edge7" class="edge">
<title>7&#45;&gt;8</title>
<path fill="none" stroke="black" d="M286.93,-255.23C289.15,-248.18 292.01,-239.13 295.01,-229.65"/>
<polygon fill="black" stroke="black" points="298.29,-230.87 297.96,-220.28 291.61,-228.76 298.29,-230.87"/>
</g>
</g>
</svg>
