<?xml version="1.0" encoding="UTF-8" standalone="no"?>
<!DOCTYPE svg PUBLIC "-//W3C//DTD SVG 1.1//EN"
 "http://www.w3.org/Graphics/SVG/1.1/DTD/svg11.dtd">
<!-- Generated by graphviz version 11.0.0 (20240428.1522)
 -->
<!-- Title: GDALG Workflow Pages: 1 -->
<svg width="890pt" height="222pt"
 viewBox="0.00 0.00 889.75 221.50" xmlns="http://www.w3.org/2000/svg" xmlns:xlink="http://www.w3.org/1999/xlink">
<g id="graph0" class="graph" transform="scale(1 1) rotate(0) translate(4 217.5)">
<title>GDALG Workflow</title>
<polygon fill="white" stroke="none" points="-4,4 -4,-217.5 885.75,-217.5 885.75,4 -4,4"/>
<!-- 0 -->
<g id="node1" class="node">
<title>0</title>
<g id="a_node1"><a xlink:href="https://gdal.org/en/latest/programs/gdal_raster_read.html" xlink:title="https://gdal.org/en/latest/programs/gdal_raster_read.html">
<polygon fill="#cfe2ff" stroke="none" points="0,-106.75 0,-137.25 53,-137.25 53,-106.75 0,-106.75"/>
<polygon fill="none" stroke="black" points="0,-106.75 0,-137.25 53,-137.25 53,-106.75 0,-106.75"/>
<text text-anchor="start" x="10.75" y="-117.95" font-family="Helvetica,sans-Serif" font-weight="bold" font-size="14.00">read</text>
<polygon fill="none" stroke="black" points="0,-76.25 0,-106.75 53,-106.75 53,-76.25 0,-76.25"/>
<text text-anchor="start" x="7" y="-86.45" font-family="Helvetica,sans-Serif" font-size="14.00">n43.tif</text>
</a>
</g>
</g>
<!-- 1 -->
<g id="node2" class="node">
<title>1</title>
<g id="a_node2"><a xlink:href="https://gdal.org/en/latest/programs/gdal_raster_color_map.html" xlink:title="https://gdal.org/en/latest/programs/gdal_raster_color_map.html">
<polygon fill="#cfe2ff" stroke="none" points="89,-122 89,-152.5 179.5,-152.5 179.5,-122 89,-122"/>
<polygon fill="none" stroke="black" points="89,-122 89,-152.5 179.5,-152.5 179.5,-122 89,-122"/>
<text text-anchor="start" x="99" y="-133.2" font-family="Helvetica,sans-Serif" font-weight="bold" font-size="14.00">color&#45;map</text>
<polygon fill="none" stroke="black" points="89,-91.5 89,-122 179.5,-122 179.5,-91.5 89,-91.5"/>
<text text-anchor="start" x="96" y="-101.7" font-family="Helvetica,sans-Serif" font-size="14.00">&#45;&#45;color&#45;map</text>
<polygon fill="none" stroke="black" points="89,-61 89,-91.5 179.5,-91.5 179.5,-61 89,-61"/>
<text text-anchor="start" x="96" y="-71.2" font-family="Helvetica,sans-Serif" font-size="14.00">color_file.txt</text>
</a>
</g>
</g>
<!-- 0&#45;&gt;1 -->
<g id="edge1" class="edge">
<title>0&#45;&gt;1</title>
<path fill="none" stroke="black" d="M52.83,-106.75C60.39,-106.75 69,-106.75 77.7,-106.75"/>
<polygon fill="black" stroke="black" points="77.6,-110.25 87.6,-106.75 77.6,-103.25 77.6,-110.25"/>
</g>
<!-- 2 -->
<g id="node3" class="node">
<title>2</title>
<g id="a_node3"><a xlink:href="https://gdal.org/en/latest/programs/gdal_raster_tee.html" xlink:title="https://gdal.org/en/latest/programs/gdal_raster_tee.html">
<polygon fill="#cfe2ff" stroke="none" points="215.5,-167.75 215.5,-198.25 295.5,-198.25 295.5,-167.75 215.5,-167.75"/>
<polygon fill="none" stroke="black" points="215.5,-167.75 215.5,-198.25 295.5,-198.25 295.5,-167.75 215.5,-167.75"/>
<text text-anchor="start" x="245" y="-178.95" font-family="Helvetica,sans-Serif" font-weight="bold" font-size="14.00">tee</text>
<polygon fill="none" stroke="black" points="215.5,-137.25 215.5,-167.75 295.5,-167.75 295.5,-137.25 215.5,-137.25"/>
<text text-anchor="start" x="222.5" y="-147.45" font-family="Helvetica,sans-Serif" font-size="14.00">[</text>
<polygon fill="none" stroke="black" points="215.5,-106.75 215.5,-137.25 295.5,-137.25 295.5,-106.75 215.5,-106.75"/>
<text text-anchor="start" x="222.5" y="-116.95" font-family="Helvetica,sans-Serif" font-size="14.00">write</text>
<polygon fill="none" stroke="black" points="215.5,-76.25 215.5,-106.75 295.5,-106.75 295.5,-76.25 215.5,-76.25"/>
<text text-anchor="start" x="222.5" y="-86.45" font-family="Helvetica,sans-Serif" font-size="14.00">colored.tif</text>
<polygon fill="none" stroke="black" points="215.5,-45.75 215.5,-76.25 295.5,-76.25 295.5,-45.75 215.5,-45.75"/>
<text text-anchor="start" x="222.5" y="-55.95" font-family="Helvetica,sans-Serif" font-size="14.00">&#45;&#45;overwrite</text>
<polygon fill="none" stroke="black" points="215.5,-15.25 215.5,-45.75 295.5,-45.75 295.5,-15.25 215.5,-15.25"/>
<text text-anchor="start" x="222.5" y="-25.45" font-family="Helvetica,sans-Serif" font-size="14.00">]</text>
</a>
</g>
</g>
<!-- 1&#45;&gt;2 -->
<g id="edge2" class="edge">
<title>1&#45;&gt;2</title>
<path fill="none" stroke="black" d="M179.32,-106.75C187.43,-106.75 195.96,-106.75 204.25,-106.75"/>
<polygon fill="black" stroke="black" points="204.21,-110.25 214.21,-106.75 204.21,-103.25 204.21,-110.25"/>
</g>
<!-- 3 -->
<g id="node4" class="node">
<title>3</title>
<g id="a_node4"><a xlink:href="https://gdal.org/en/latest/programs/gdal_raster_blend.html" xlink:title="https://gdal.org/en/latest/programs/gdal_raster_blend.html">
<polygon fill="#cfe2ff" stroke="none" points="331.5,-152.5 331.5,-183 475.25,-183 475.25,-152.5 331.5,-152.5"/>
<polygon fill="none" stroke="black" points="331.5,-152.5 331.5,-183 475.25,-183 475.25,-152.5 331.5,-152.5"/>
<text text-anchor="start" x="383.88" y="-163.7" font-family="Helvetica,sans-Serif" font-weight="bold" font-size="14.00">blend</text>
<polygon fill="none" stroke="black" points="331.5,-122 331.5,-152.5 475.25,-152.5 475.25,-122 331.5,-122"/>
<text text-anchor="start" x="338.5" y="-132.2" font-family="Helvetica,sans-Serif" font-size="14.00">&#45;&#45;operator=hsv&#45;value</text>
<polygon fill="none" stroke="black" points="331.5,-91.5 331.5,-122 475.25,-122 475.25,-91.5 331.5,-91.5"/>
<text text-anchor="start" x="338.5" y="-101.7" font-family="Helvetica,sans-Serif" font-size="14.00">&#45;&#45;overlay</text>
<polygon fill="none" stroke="black" points="331.5,-61 331.5,-91.5 475.25,-91.5 475.25,-61 331.5,-61"/>
<text text-anchor="start" x="338.5" y="-71.2" font-family="Helvetica,sans-Serif" font-size="14.00">[read</text>
<polygon fill="none" stroke="black" points="331.5,-30.5 331.5,-61 475.25,-61 475.25,-30.5 331.5,-30.5"/>
<text text-anchor="start" x="338.5" y="-40.7" font-family="Helvetica,sans-Serif" font-size="14.00">n43.tif</text>
</a>
</g>
</g>
<!-- 2&#45;&gt;3 -->
<g id="edge3" class="edge">
<title>2&#45;&gt;3</title>
<path fill="none" stroke="black" d="M295.21,-106.75C303.01,-106.75 311.5,-106.75 320.16,-106.75"/>
<polygon fill="black" stroke="black" points="320.09,-110.25 330.09,-106.75 320.09,-103.25 320.09,-110.25"/>
</g>
<!-- 4 -->
<g id="node5" class="node">
<title>4</title>
<g id="a_node5"><a xlink:href="https://gdal.org/en/latest/programs/gdal_raster_hillshade.html" xlink:title="https://gdal.org/en/latest/programs/gdal_raster_hillshade.html">
<polygon fill="#cfe2ff" stroke="none" points="511.25,-106.75 511.25,-137.25 588.25,-137.25 588.25,-106.75 511.25,-106.75"/>
<polygon fill="none" stroke="black" points="511.25,-106.75 511.25,-137.25 588.25,-137.25 588.25,-106.75 511.25,-106.75"/>
<text text-anchor="start" x="518.25" y="-117.95" font-family="Helvetica,sans-Serif" font-weight="bold" font-size="14.00">hillshade</text>
<polygon fill="none" stroke="black" points="511.25,-76.25 511.25,-106.75 588.25,-106.75 588.25,-76.25 511.25,-76.25"/>
<text text-anchor="start" x="518.25" y="-86.45" font-family="Helvetica,sans-Serif" font-size="14.00">&#45;z 30</text>
</a>
</g>
</g>
<!-- 3&#45;&gt;4 -->
<g id="edge4" class="edge">
<title>3&#45;&gt;4</title>
<path fill="none" stroke="black" d="M474.87,-106.75C483.34,-106.75 491.83,-106.75 499.89,-106.75"/>
<polygon fill="black" stroke="black" points="499.82,-110.25 509.82,-106.75 499.82,-103.25 499.82,-110.25"/>
</g>
<!-- 5 -->
<g id="node6" class="node">
<title>5</title>
<g id="a_node6"><a xlink:href="https://gdal.org/en/latest/programs/gdal_raster_tee.html" xlink:title="https://gdal.org/en/latest/programs/gdal_raster_tee.html">
<polygon fill="#cfe2ff" stroke="none" points="624.25,-183 624.25,-213.5 708.75,-213.5 708.75,-183 624.25,-183"/>
<polygon fill="none" stroke="black" points="624.25,-183 624.25,-213.5 708.75,-213.5 708.75,-183 624.25,-183"/>
<text text-anchor="start" x="656" y="-194.2" font-family="Helvetica,sans-Serif" font-weight="bold" font-size="14.00">tee</text>
<polygon fill="none" stroke="black" points="624.25,-152.5 624.25,-183 708.75,-183 708.75,-152.5 624.25,-152.5"/>
<text text-anchor="start" x="631.25" y="-162.7" font-family="Helvetica,sans-Serif" font-size="14.00">[</text>
<polygon fill="none" stroke="black" points="624.25,-122 624.25,-152.5 708.75,-152.5 708.75,-122 624.25,-122"/>
<text text-anchor="start" x="631.25" y="-132.2" font-family="Helvetica,sans-Serif" font-size="14.00">write</text>
<polygon fill="none" stroke="black" points="624.25,-91.5 624.25,-122 708.75,-122 708.75,-91.5 624.25,-91.5"/>
<text text-anchor="start" x="631.25" y="-101.7" font-family="Helvetica,sans-Serif" font-size="14.00">hillshade.tif</text>
<polygon fill="none" stroke="black" points="624.25,-61 624.25,-91.5 708.75,-91.5 708.75,-61 624.25,-61"/>
<text text-anchor="start" x="631.25" y="-71.2" font-family="Helvetica,sans-Serif" font-size="14.00">&#45;&#45;overwrite</text>
<polygon fill="none" stroke="black" points="624.25,-30.5 624.25,-61 708.75,-61 708.75,-30.5 624.25,-30.5"/>
<text text-anchor="start" x="631.25" y="-40.7" font-family="Helvetica,sans-Serif" font-size="14.00">]</text>
<polygon fill="none" stroke="black" points="624.25,0 624.25,-30.5 708.75,-30.5 708.75,0 624.25,0"/>
<text text-anchor="start" x="631.25" y="-10.2" font-family="Helvetica,sans-Serif" font-size="14.00">]</text>
</a>
</g>
</g>
<!-- 4&#45;&gt;5 -->
<g id="edge5" class="edge">
<title>4&#45;&gt;5</title>
<path fill="none" stroke="black" d="M588.01,-106.75C596.01,-106.75 604.62,-106.75 613.08,-106.75"/>
<polygon fill="black" stroke="black" points="612.95,-110.25 622.95,-106.75 612.95,-103.25 612.95,-110.25"/>
</g>
<!-- 6 -->
<g id="node7" class="node">
<title>6</title>
<g id="a_node7"><a xlink:href="https://gdal.org/en/latest/programs/gdal_raster_write.html" xlink:title="https://gdal.org/en/latest/programs/gdal_raster_write.html">
<polygon fill="#cfe2ff" stroke="none" points="744.75,-122 744.75,-152.5 881.75,-152.5 881.75,-122 744.75,-122"/>
<polygon fill="none" stroke="black" points="744.75,-122 744.75,-152.5 881.75,-152.5 881.75,-122 744.75,-122"/>
<text text-anchor="start" x="796.38" y="-133.2" font-family="Helvetica,sans-Serif" font-weight="bold" font-size="14.00">write</text>
<polygon fill="none" stroke="black" points="744.75,-91.5 744.75,-122 881.75,-122 881.75,-91.5 744.75,-91.5"/>
<text text-anchor="start" x="751.75" y="-101.7" font-family="Helvetica,sans-Serif" font-size="14.00">colored&#45;hillshade.tif</text>
<polygon fill="none" stroke="black" points="744.75,-61 744.75,-91.5 881.75,-91.5 881.75,-61 744.75,-61"/>
<text text-anchor="start" x="751.75" y="-71.2" font-family="Helvetica,sans-Serif" font-size="14.00">&#45;&#45;overwrite</text>
</a>
</g>
</g>
<!-- 5&#45;&gt;6 -->
<g id="edge6" class="edge">
<title>5&#45;&gt;6</title>
<path fill="none" stroke="black" d="M708.59,-106.75C716.44,-106.75 724.89,-106.75 733.46,-106.75"/>
<polygon fill="black" stroke="black" points="733.25,-110.25 743.25,-106.75 733.25,-103.25 733.25,-110.25"/>
</g>
</g>
</svg>
