<?xml version="1.0" encoding="UTF-8" standalone="no"?>
<!DOCTYPE svg PUBLIC "-//W3C//DTD SVG 1.1//EN"
 "http://www.w3.org/Graphics/SVG/1.1/DTD/svg11.dtd">
<!-- Generated by graphviz version 11.0.0 (20240428.1522)
 -->
<!-- Title: GDALG Workflow Pages: 1 -->
<svg width="355pt" height="546pt"
 viewBox="0.00 0.00 354.88 546.00" xmlns="http://www.w3.org/2000/svg" xmlns:xlink="http://www.w3.org/1999/xlink">
<g id="graph0" class="graph" transform="scale(1 1) rotate(0) translate(36 510)">
<title>GDALG Workflow</title>
<!-- 0 -->
<g id="node1" class="node">
<title>0</title>
<g id="a_node1"><a xlink:href="https://gdal.org/en/latest/programs/gdal_raster_read.html" xlink:title="https://gdal.org/en/latest/programs/gdal_raster_read.html" target="_blank">
<polygon fill="#2d4a6e" stroke="none" points="56.62,-446.5 56.62,-474 111.12,-474 111.12,-446.5 56.62,-446.5"/>
<polygon fill="none" stroke="black" points="56.62,-446.5 56.62,-474 111.12,-474 111.12,-446.5 56.62,-446.5"/>
<text text-anchor="start" x="68.5" y="-456.6" font-family="Verdana" font-weight="bold" font-size="12.00">read</text>
<polygon fill="none" stroke="black" points="56.62,-419 56.62,-446.5 111.12,-446.5 111.12,-419 56.62,-419"/>
<text text-anchor="start" x="63.62" y="-428.1" font-family="Verdana" font-size="12.00">n43.tif</text>
</a>
</g>
</g>
<!-- 1 -->
<g id="node2" class="node">
<title>1</title>
<g id="a_node2"><a xlink:href="https://gdal.org/en/latest/programs/gdal_raster_color_map.html" xlink:title="https://gdal.org/en/latest/programs/gdal_raster_color_map.html" target="_blank">
<polygon fill="#2d4a6e" stroke="none" points="0,-355.5 0,-383 167.75,-383 167.75,-355.5 0,-355.5"/>
<polygon fill="none" stroke="black" points="0,-355.5 0,-383 167.75,-383 167.75,-355.5 0,-355.5"/>
<text text-anchor="start" x="50.5" y="-365.6" font-family="Verdana" font-weight="bold" font-size="12.00">color&#45;map</text>
<polygon fill="none" stroke="black" points="0,-328 0,-355.5 167.75,-355.5 167.75,-328 0,-328"/>
<text text-anchor="start" x="7" y="-337.1" font-family="Verdana" font-size="12.00">&#45;&#45;color&#45;map color_file.txt</text>
</a>
</g>
</g>
<!-- 0&#45;&gt;1 -->
<g id="edge1" class="edge">
<title>0&#45;&gt;1</title>
<path fill="none" stroke="black" d="M83.88,-419.28C83.88,-411.38 83.88,-402.56 83.88,-394.07"/>
<polygon fill="black" stroke="black" points="87.38,-394.36 83.88,-384.36 80.38,-394.36 87.38,-394.36"/>
</g>
<!-- 2 -->
<g id="node3" class="node">
<title>2</title>
<polygon fill="#2d4a6e" stroke="none" points="66,-250.75 66,-278.25 101.75,-278.25 101.75,-250.75 66,-250.75"/>
<polygon fill="none" stroke="black" points="66,-250.75 66,-278.25 101.75,-278.25 101.75,-250.75 66,-250.75"/>
<text text-anchor="start" x="73" y="-260.85" font-family="Verdana" font-weight="bold" font-size="12.00">tee</text>
</g>
<!-- 1&#45;&gt;2 -->
<g id="edge2" class="edge">
<title>1&#45;&gt;2</title>
<path fill="none" stroke="black" d="M83.88,-328.28C83.88,-315.95 83.88,-301.35 83.88,-289.34"/>
<polygon fill="black" stroke="black" points="87.38,-289.47 83.88,-279.47 80.38,-289.47 87.38,-289.47"/>
</g>
<!-- 3 -->
<g id="node4" class="node">
<title>3</title>
<g id="a_node4"><a xlink:href="https://gdal.org/en/latest/programs/gdal_raster_write.html" xlink:title="https://gdal.org/en/latest/programs/gdal_raster_write.html" target="_blank">
<polygon fill="#2d4a6e" stroke="none" points="43.12,-173.5 43.12,-201 124.62,-201 124.62,-173.5 43.12,-173.5"/>
<polygon fill="none" stroke="black" points="43.12,-173.5 43.12,-201 124.62,-201 124.62,-173.5 43.12,-173.5"/>
<text text-anchor="start" x="66.62" y="-183.6" font-family="Verdana" font-weight="bold" font-size="12.00">write</text>
<polygon fill="none" stroke="black" points="43.12,-146 43.12,-173.5 124.62,-173.5 124.62,-146 43.12,-146"/>
<text text-anchor="start" x="50.12" y="-155.1" font-family="Verdana" font-size="12.00">colored.tif</text>
<polygon fill="none" stroke="black" points="43.12,-118.5 43.12,-146 124.62,-146 124.62,-118.5 43.12,-118.5"/>
<text text-anchor="start" x="50.12" y="-127.6" font-family="Verdana" font-size="12.00">&#45;&#45;overwrite</text>
</a>
</g>
</g>
<!-- 2&#45;&gt;3 -->
<g id="edge3" class="edge">
<title>2&#45;&gt;3</title>
<path fill="none" stroke="black" d="M83.88,-250.9C83.88,-241.09 83.88,-226.77 83.88,-212.42"/>
<polygon fill="black" stroke="black" points="87.38,-212.5 83.88,-202.5 80.38,-212.5 87.38,-212.5"/>
</g>
<!-- 4 -->
<g id="node5" class="node">
<title>4</title>
<g id="a_node5"><a xlink:href="https://gdal.org/en/latest/programs/gdal_raster_blend.html" xlink:title="https://gdal.org/en/latest/programs/gdal_raster_blend.html" target="_blank">
<polygon fill="#2d4a6e" stroke="none" points="142.88,-173.5 142.88,-201 282.88,-201 282.88,-173.5 142.88,-173.5"/>
<polygon fill="none" stroke="black" points="142.88,-173.5 142.88,-201 282.88,-201 282.88,-173.5 142.88,-173.5"/>
<text text-anchor="start" x="194.88" y="-183.6" font-family="Verdana" font-weight="bold" font-size="12.00">blend</text>
<polygon fill="none" stroke="black" points="142.88,-146 142.88,-173.5 282.88,-173.5 282.88,-146 142.88,-146"/>
<text text-anchor="start" x="149.88" y="-155.1" font-family="Verdana" font-size="12.00">&#45;&#45;operator hsv&#45;value</text>
<polygon fill="none" stroke="black" points="142.88,-118.5 142.88,-146 282.88,-146 282.88,-118.5 142.88,-118.5"/>
<text text-anchor="start" x="149.88" y="-127.6" font-family="Verdana" font-size="12.00">&#45;&#45;overlay</text>
</a>
</g>
</g>
<!-- 2&#45;&gt;4 -->
<g id="edge4" class="edge">
<title>2&#45;&gt;4</title>
<path fill="none" stroke="black" d="M99.69,-250.9C113.23,-240.12 133.6,-223.89 153.35,-208.16"/>
<polygon fill="black" stroke="black" points="155.53,-210.9 161.17,-201.93 151.17,-205.43 155.53,-210.9"/>
</g>
<!-- 7 -->
<g id="node8" class="node">
<title>7</title>
<g id="a_node8"><a xlink:href="https://gdal.org/en/latest/programs/gdal_raster_write.html" xlink:title="https://gdal.org/en/latest/programs/gdal_raster_write.html" target="_blank">
<polygon fill="#2d4a6e" stroke="none" points="144.38,-55 144.38,-82.5 281.38,-82.5 281.38,-55 144.38,-55"/>
<polygon fill="none" stroke="black" points="144.38,-55 144.38,-82.5 281.38,-82.5 281.38,-55 144.38,-55"/>
<text text-anchor="start" x="195.62" y="-65.1" font-family="Verdana" font-weight="bold" font-size="12.00">write</text>
<polygon fill="none" stroke="black" points="144.38,-27.5 144.38,-55 281.38,-55 281.38,-27.5 144.38,-27.5"/>
<text text-anchor="start" x="151.38" y="-36.6" font-family="Verdana" font-size="12.00">colored&#45;hillshade.tif</text>
<polygon fill="none" stroke="black" points="144.38,0 144.38,-27.5 281.38,-27.5 281.38,0 144.38,0"/>
<text text-anchor="start" x="151.38" y="-9.1" font-family="Verdana" font-size="12.00">&#45;&#45;overwrite</text>
</a>
</g>
</g>
<!-- 4&#45;&gt;7 -->
<g id="edge7" class="edge">
<title>4&#45;&gt;7</title>
<path fill="none" stroke="black" d="M212.88,-118.66C212.88,-110.6 212.88,-102.03 212.88,-93.66"/>
<polygon fill="black" stroke="black" points="216.38,-93.93 212.88,-83.93 209.38,-93.93 216.38,-93.93"/>
</g>
<!-- 5 -->
<g id="node6" class="node">
<title>5</title>
<g id="a_node6"><a xlink:href="https://gdal.org/en/latest/programs/gdal_raster_read.html" xlink:title="https://gdal.org/en/latest/programs/gdal_raster_read.html" target="_blank">
<polygon fill="#2d4a6e" stroke="none" points="185.62,-355.5 185.62,-383 240.12,-383 240.12,-355.5 185.62,-355.5"/>
<polygon fill="none" stroke="black" points="185.62,-355.5 185.62,-383 240.12,-383 240.12,-355.5 185.62,-355.5"/>
<text text-anchor="start" x="197.5" y="-365.6" font-family="Verdana" font-weight="bold" font-size="12.00">read</text>
<polygon fill="none" stroke="black" points="185.62,-328 185.62,-355.5 240.12,-355.5 240.12,-328 185.62,-328"/>
<text text-anchor="start" x="192.62" y="-337.1" font-family="Verdana" font-size="12.00">n43.tif</text>
</a>
</g>
</g>
<!-- 6 -->
<g id="node7" class="node">
<title>6</title>
<g id="a_node7"><a xlink:href="https://gdal.org/en/latest/programs/gdal_raster_hillshade.html" xlink:title="https://gdal.org/en/latest/programs/gdal_raster_hillshade.html" target="_blank">
<polygon fill="#2d4a6e" stroke="none" points="177.38,-264.5 177.38,-292 248.38,-292 248.38,-264.5 177.38,-264.5"/>
<polygon fill="none" stroke="black" points="177.38,-264.5 177.38,-292 248.38,-292 248.38,-264.5 177.38,-264.5"/>
<text text-anchor="start" x="184.38" y="-274.6" font-family="Verdana" font-weight="bold" font-size="12.00">hillshade</text>
<polygon fill="none" stroke="black" points="177.38,-237 177.38,-264.5 248.38,-264.5 248.38,-237 177.38,-237"/>
<text text-anchor="start" x="184.38" y="-246.1" font-family="Verdana" font-size="12.00">&#45;z 30</text>
</a>
</g>
</g>
<!-- 5&#45;&gt;6 -->
<g id="edge5" class="edge">
<title>5&#45;&gt;6</title>
<path fill="none" stroke="black" d="M212.88,-328.28C212.88,-320.38 212.88,-311.56 212.88,-303.07"/>
<polygon fill="black" stroke="black" points="216.38,-303.36 212.88,-293.36 209.38,-303.36 216.38,-303.36"/>
</g>
<!-- 6&#45;&gt;4 -->
<g id="edge6" class="edge">
<title>6&#45;&gt;4</title>
<path fill="none" stroke="black" d="M212.88,-237.04C212.88,-229.35 212.88,-220.68 212.88,-212.01"/>
<polygon fill="black" stroke="black" points="216.38,-212.21 212.88,-202.21 209.38,-212.21 216.38,-212.21"/>
</g>
</g>
</svg>
