<?xml version="1.0" encoding="UTF-8" standalone="no"?>
<!DOCTYPE svg PUBLIC "-//W3C//DTD SVG 1.1//EN"
 "http://www.w3.org/Graphics/SVG/1.1/DTD/svg11.dtd">
<!-- Generated by graphviz version 11.0.0 (20240428.1522)
 -->
<!-- Title: GDALG Workflow Pages: 1 -->
<svg width="503pt" height="100pt"
 viewBox="0.00 0.00 502.75 99.50" xmlns="http://www.w3.org/2000/svg" xmlns:xlink="http://www.w3.org/1999/xlink">
<g id="graph0" class="graph" transform="scale(1 1) rotate(0) translate(4 95.5)">
<title>GDALG Workflow</title>
<polygon fill="white" stroke="none" points="-4,4 -4,-95.5 498.75,-95.5 498.75,4 -4,4"/>
<!-- 0 -->
<g id="node1" class="node">
<title>0</title>
<g id="a_node1"><a xlink:href="https://gdal.org/en/latest/programs/gdal_vector_gdal.html" xlink:title="https://gdal.org/en/latest/programs/gdal_vector_gdal.html">
<polygon fill="#cfe2ff" stroke="none" points="0,-61 0,-91.5 63.5,-91.5 63.5,-61 0,-61"/>
<polygon fill="none" stroke="black" points="0,-61 0,-91.5 63.5,-91.5 63.5,-61 0,-61"/>
<text text-anchor="start" x="16.75" y="-72.2" font-family="Helvetica,sans-Serif" font-weight="bold" font-size="14.00">gdal</text>
<polygon fill="none" stroke="black" points="0,-30.5 0,-61 63.5,-61 63.5,-30.5 0,-30.5"/>
<text text-anchor="start" x="7" y="-40.7" font-family="Helvetica,sans-Serif" font-size="14.00">vector</text>
<polygon fill="none" stroke="black" points="0,0 0,-30.5 63.5,-30.5 63.5,0 0,0"/>
<text text-anchor="start" x="7" y="-10.2" font-family="Helvetica,sans-Serif" font-size="14.00">pipeline</text>
</a>
</g>
</g>
<!-- 1 -->
<g id="node2" class="node">
<title>1</title>
<polygon fill="#cfe2ff" stroke="none" points="99.5,-45.75 99.5,-76.25 145,-76.25 145,-45.75 99.5,-45.75"/>
<polygon fill="none" stroke="black" points="99.5,-45.75 99.5,-76.25 145,-76.25 145,-45.75 99.5,-45.75"/>
<text text-anchor="start" x="106.5" y="-56.95" font-family="Helvetica,sans-Serif" font-weight="bold" font-size="14.00">read</text>
<polygon fill="none" stroke="black" points="99.5,-15.25 99.5,-45.75 145,-45.75 145,-15.25 99.5,-15.25"/>
<text text-anchor="start" x="106.5" y="-25.45" font-family="Helvetica,sans-Serif" font-size="14.00">in.tif</text>
</g>
<!-- 0&#45;&gt;1 -->
<g id="edge1" class="edge">
<title>0&#45;&gt;1</title>
<path fill="none" stroke="black" d="M63.21,-45.75C71.27,-45.75 80.01,-45.75 88.2,-45.75"/>
<polygon fill="black" stroke="black" points="88.16,-49.25 98.16,-45.75 88.16,-42.25 88.16,-49.25"/>
</g>
<!-- 2 -->
<g id="node3" class="node">
<title>2</title>
<g id="a_node3"><a xlink:href="https://gdal.org/en/latest/programs/gdal_raster_reproject.html" xlink:title="https://gdal.org/en/latest/programs/gdal_raster_reproject.html">
<polygon fill="#cfe2ff" stroke="none" points="181,-45.75 181,-76.25 341.25,-76.25 341.25,-45.75 181,-45.75"/>
<polygon fill="none" stroke="black" points="181,-45.75 181,-76.25 341.25,-76.25 341.25,-45.75 181,-45.75"/>
<text text-anchor="start" x="229.62" y="-56.95" font-family="Helvetica,sans-Serif" font-weight="bold" font-size="14.00">reproject</text>
<polygon fill="none" stroke="black" points="181,-15.25 181,-45.75 341.25,-45.75 341.25,-15.25 181,-15.25"/>
<text text-anchor="start" x="188" y="-25.45" font-family="Helvetica,sans-Serif" font-size="14.00">&#45;&#45;dst&#45;crs=EPSG:32632</text>
</a>
</g>
</g>
<!-- 1&#45;&gt;2 -->
<g id="edge2" class="edge">
<title>1&#45;&gt;2</title>
<path fill="none" stroke="black" d="M144.94,-45.75C152.17,-45.75 160.74,-45.75 169.89,-45.75"/>
<polygon fill="black" stroke="black" points="169.78,-49.25 179.78,-45.75 169.78,-42.25 169.78,-49.25"/>
</g>
<!-- 3 -->
<g id="node4" class="node">
<title>3</title>
<g id="a_node4"><a xlink:href="https://gdal.org/en/latest/programs/gdal_raster_select.html" xlink:title="https://gdal.org/en/latest/programs/gdal_raster_select.html">
<polygon fill="#cfe2ff" stroke="none" points="377.25,-45.75 377.25,-76.25 494.75,-76.25 494.75,-45.75 377.25,-45.75"/>
<polygon fill="none" stroke="black" points="377.25,-45.75 377.25,-76.25 494.75,-76.25 494.75,-45.75 377.25,-45.75"/>
<text text-anchor="start" x="415.38" y="-56.95" font-family="Helvetica,sans-Serif" font-weight="bold" font-size="14.00">select</text>
<polygon fill="none" stroke="black" points="377.25,-15.25 377.25,-45.75 494.75,-45.75 494.75,-15.25 377.25,-15.25"/>
<text text-anchor="start" x="384.25" y="-25.45" font-family="Helvetica,sans-Serif" font-size="14.00">&#45;&#45;fields fid,geom</text>
</a>
</g>
</g>
<!-- 2&#45;&gt;3 -->
<g id="edge3" class="edge">
<title>2&#45;&gt;3</title>
<path fill="none" stroke="black" d="M341.23,-45.75C349.51,-45.75 357.87,-45.75 366.03,-45.75"/>
<polygon fill="black" stroke="black" points="365.86,-49.25 375.86,-45.75 365.86,-42.25 365.86,-49.25"/>
</g>
</g>
</svg>
