<?xml version="1.0" encoding="UTF-8" standalone="no"?>
<!DOCTYPE svg PUBLIC "-//W3C//DTD SVG 1.1//EN"
 "http://www.w3.org/Graphics/SVG/1.1/DTD/svg11.dtd">
<!-- Generated by graphviz version 11.0.0 (20240428.1522)
 -->
<!-- Title: png Pages: 1 -->
<svg width="561pt" height="100pt"
 viewBox="0.00 0.00 560.50 99.50" xmlns="http://www.w3.org/2000/svg" xmlns:xlink="http://www.w3.org/1999/xlink">
<g id="graph0" class="graph" transform="scale(1 1) rotate(0) translate(4 95.5)">
<title>png</title>
<polygon fill="white" stroke="none" points="-4,4 -4,-95.5 556.5,-95.5 556.5,4 -4,4"/>
<!-- 0 -->
<g id="node1" class="node">
<title>0</title>
<g id="a_node1"><a xlink:href="https://gdal.org/en/latest/programs/gdal_None_read.html" xlink:title="https://gdal.org/en/latest/programs/gdal_None_read.html">
<polygon fill="#cfe2ff" stroke="none" points="0,-45.75 0,-76.25 59,-76.25 59,-45.75 0,-45.75"/>
<polygon fill="none" stroke="black" points="0,-45.75 0,-76.25 59,-76.25 59,-45.75 0,-45.75"/>
<text text-anchor="start" x="13.75" y="-56.95" font-family="Helvetica,sans-Serif" font-weight="bold" font-size="14.00">read</text>
<polygon fill="none" stroke="black" points="0,-15.25 0,-45.75 59,-45.75 59,-15.25 0,-15.25"/>
<text text-anchor="start" x="7" y="-25.45" font-family="Helvetica,sans-Serif" font-size="14.00">input.tif</text>
</a>
</g>
</g>
<!-- 1 -->
<g id="node2" class="node">
<title>1</title>
<g id="a_node2"><a xlink:href="https://gdal.org/en/latest/programs/gdal_None_reproject.html" xlink:title="https://gdal.org/en/latest/programs/gdal_None_reproject.html">
<polygon fill="#cfe2ff" stroke="none" points="95,-45.75 95,-76.25 247,-76.25 247,-45.75 95,-45.75"/>
<polygon fill="none" stroke="black" points="95,-45.75 95,-76.25 247,-76.25 247,-45.75 95,-45.75"/>
<text text-anchor="start" x="139.5" y="-56.95" font-family="Helvetica,sans-Serif" font-weight="bold" font-size="14.00">reproject</text>
<polygon fill="none" stroke="black" points="95,-15.25 95,-45.75 247,-45.75 247,-15.25 95,-15.25"/>
<text text-anchor="start" x="102" y="-25.45" font-family="Helvetica,sans-Serif" font-size="14.00">&#45;&#45;dst&#45;crs=EPSG:4326</text>
</a>
</g>
</g>
<!-- 0&#45;&gt;1 -->
<g id="edge1" class="edge">
<title>0&#45;&gt;1</title>
<path fill="none" stroke="black" d="M58.73,-45.75C66.23,-45.75 74.74,-45.75 83.63,-45.75"/>
<polygon fill="black" stroke="black" points="83.54,-49.25 93.54,-45.75 83.54,-42.25 83.54,-49.25"/>
</g>
<!-- 2 -->
<g id="node3" class="node">
<title>2</title>
<g id="a_node3"><a xlink:href="https://gdal.org/en/latest/programs/gdal_None_add.html" xlink:title="https://gdal.org/en/latest/programs/gdal_None_add.html">
<polygon fill="#cfe2ff" stroke="none" points="283,-61 283,-91.5 411.75,-91.5 411.75,-61 283,-61"/>
<polygon fill="none" stroke="black" points="283,-61 283,-91.5 411.75,-91.5 411.75,-61 283,-61"/>
<text text-anchor="start" x="334.25" y="-72.2" font-family="Helvetica,sans-Serif" font-weight="bold" font-size="14.00">add</text>
<polygon fill="none" stroke="black" points="283,-30.5 283,-61 411.75,-61 411.75,-30.5 283,-30.5"/>
<text text-anchor="start" x="290" y="-40.7" font-family="Helvetica,sans-Serif" font-size="14.00">overview</text>
<polygon fill="none" stroke="black" points="283,0 283,-30.5 411.75,-30.5 411.75,0 283,0"/>
<text text-anchor="start" x="290" y="-10.2" font-family="Helvetica,sans-Serif" font-size="14.00">&#45;&#45;levels 16,64,128</text>
</a>
</g>
</g>
<!-- 1&#45;&gt;2 -->
<g id="edge2" class="edge">
<title>1&#45;&gt;2</title>
<path fill="none" stroke="black" d="M246.96,-45.75C255.18,-45.75 263.55,-45.75 271.76,-45.75"/>
<polygon fill="black" stroke="black" points="271.73,-49.25 281.73,-45.75 271.73,-42.25 271.73,-49.25"/>
</g>
<!-- 3 -->
<g id="node4" class="node">
<title>3</title>
<g id="a_node4"><a xlink:href="https://gdal.org/en/latest/programs/gdal_None_write.html" xlink:title="https://gdal.org/en/latest/programs/gdal_None_write.html">
<polygon fill="#cfe2ff" stroke="none" points="447.75,-61 447.75,-91.5 552.5,-91.5 552.5,-61 447.75,-61"/>
<polygon fill="none" stroke="black" points="447.75,-61 447.75,-91.5 552.5,-91.5 552.5,-61 447.75,-61"/>
<text text-anchor="start" x="483.25" y="-72.2" font-family="Helvetica,sans-Serif" font-weight="bold" font-size="14.00">write</text>
<polygon fill="none" stroke="black" points="447.75,-30.5 447.75,-61 552.5,-61 552.5,-30.5 447.75,-30.5"/>
<text text-anchor="start" x="454.75" y="-40.7" font-family="Helvetica,sans-Serif" font-size="14.00">output.tif</text>
<polygon fill="none" stroke="black" points="447.75,0 447.75,-30.5 552.5,-30.5 552.5,0 447.75,0"/>
<text text-anchor="start" x="454.75" y="-10.2" font-family="Helvetica,sans-Serif" font-size="14.00">&#45;&#45;format=COG</text>
</a>
</g>
</g>
<!-- 2&#45;&gt;3 -->
<g id="edge3" class="edge">
<title>2&#45;&gt;3</title>
<path fill="none" stroke="black" d="M411.43,-45.75C419.66,-45.75 428.09,-45.75 436.31,-45.75"/>
<polygon fill="black" stroke="black" points="436.24,-49.25 446.24,-45.75 436.24,-42.25 436.24,-49.25"/>
</g>
</g>
</svg>
