<?xml version="1.0" encoding="UTF-8" standalone="no"?>
<!DOCTYPE svg PUBLIC "-//W3C//DTD SVG 1.1//EN"
 "http://www.w3.org/Graphics/SVG/1.1/DTD/svg11.dtd">
<!-- Generated by graphviz version 11.0.0 (20240428.1522)
 -->
<!-- Title: GDALG Workflow Pages: 1 -->
<svg width="403pt" height="69pt"
 viewBox="0.00 0.00 403.25 69.00" xmlns="http://www.w3.org/2000/svg" xmlns:xlink="http://www.w3.org/1999/xlink">
<g id="graph0" class="graph" transform="scale(1 1) rotate(0) translate(4 65)">
<title>GDALG Workflow</title>
<polygon fill="white" stroke="none" points="-4,4 -4,-65 399.25,-65 399.25,4 -4,4"/>
<!-- 0 -->
<g id="node1" class="node">
<title>0</title>
<g id="a_node1"><a xlink:href="https://gdal.org/en/latest/programs/gdal_vector_read.html" xlink:title="https://gdal.org/en/latest/programs/gdal_vector_read.html">
<polygon fill="#cfe2ff" stroke="none" points="0,-30.5 0,-61 45.5,-61 45.5,-30.5 0,-30.5"/>
<polygon fill="none" stroke="black" points="0,-30.5 0,-61 45.5,-61 45.5,-30.5 0,-30.5"/>
<text text-anchor="start" x="7" y="-41.7" font-family="Helvetica,sans-Serif" font-weight="bold" font-size="14.00">read</text>
<polygon fill="none" stroke="black" points="0,0 0,-30.5 45.5,-30.5 45.5,0 0,0"/>
<text text-anchor="start" x="7" y="-10.2" font-family="Helvetica,sans-Serif" font-size="14.00">in.tif</text>
</a>
</g>
</g>
<!-- 1 -->
<g id="node2" class="node">
<title>1</title>
<g id="a_node2"><a xlink:href="https://gdal.org/en/latest/programs/gdal_vector_reproject.html" xlink:title="https://gdal.org/en/latest/programs/gdal_vector_reproject.html">
<polygon fill="#cfe2ff" stroke="none" points="81.5,-30.5 81.5,-61 241.75,-61 241.75,-30.5 81.5,-30.5"/>
<polygon fill="none" stroke="black" points="81.5,-30.5 81.5,-61 241.75,-61 241.75,-30.5 81.5,-30.5"/>
<text text-anchor="start" x="130.12" y="-41.7" font-family="Helvetica,sans-Serif" font-weight="bold" font-size="14.00">reproject</text>
<polygon fill="none" stroke="black" points="81.5,0 81.5,-30.5 241.75,-30.5 241.75,0 81.5,0"/>
<text text-anchor="start" x="88.5" y="-10.2" font-family="Helvetica,sans-Serif" font-size="14.00">&#45;&#45;dst&#45;crs=EPSG:32632</text>
</a>
</g>
</g>
<!-- 0&#45;&gt;1 -->
<g id="edge1" class="edge">
<title>0&#45;&gt;1</title>
<path fill="none" stroke="black" d="M45.44,-30.5C52.67,-30.5 61.24,-30.5 70.39,-30.5"/>
<polygon fill="black" stroke="black" points="70.28,-34 80.28,-30.5 70.28,-27 70.28,-34"/>
</g>
<!-- 2 -->
<g id="node3" class="node">
<title>2</title>
<g id="a_node3"><a xlink:href="https://gdal.org/en/latest/programs/gdal_vector_select.html" xlink:title="https://gdal.org/en/latest/programs/gdal_vector_select.html">
<polygon fill="#cfe2ff" stroke="none" points="277.75,-30.5 277.75,-61 395.25,-61 395.25,-30.5 277.75,-30.5"/>
<polygon fill="none" stroke="black" points="277.75,-30.5 277.75,-61 395.25,-61 395.25,-30.5 277.75,-30.5"/>
<text text-anchor="start" x="315.88" y="-41.7" font-family="Helvetica,sans-Serif" font-weight="bold" font-size="14.00">select</text>
<polygon fill="none" stroke="black" points="277.75,0 277.75,-30.5 395.25,-30.5 395.25,0 277.75,0"/>
<text text-anchor="start" x="284.75" y="-10.2" font-family="Helvetica,sans-Serif" font-size="14.00">&#45;&#45;fields fid,geom</text>
</a>
</g>
</g>
<!-- 1&#45;&gt;2 -->
<g id="edge2" class="edge">
<title>1&#45;&gt;2</title>
<path fill="none" stroke="black" d="M241.73,-30.5C250.01,-30.5 258.37,-30.5 266.53,-30.5"/>
<polygon fill="black" stroke="black" points="266.36,-34 276.36,-30.5 266.36,-27 266.36,-34"/>
</g>
</g>
</svg>
