<?xml version="1.0" encoding="UTF-8" standalone="no"?>
<!DOCTYPE svg PUBLIC "-//W3C//DTD SVG 1.1//EN"
 "http://www.w3.org/Graphics/SVG/1.1/DTD/svg11.dtd">
<!-- Generated by graphviz version 11.0.0 (20240428.1522)
 -->
<!-- Title: GDALG Workflow Pages: 1 -->
<svg width="864pt" height="357pt"
 viewBox="0.00 0.00 863.50 356.50" xmlns="http://www.w3.org/2000/svg" xmlns:xlink="http://www.w3.org/1999/xlink">
<g id="graph0" class="graph" transform="scale(1 1) rotate(0) translate(36 320.5)">
<title>GDALG Workflow</title>
<!-- 0 -->
<g id="node1" class="node">
<title>0</title>
<g id="a_node1"><a xlink:href="https://gdal.org/en/latest/programs/gdal_raster_read.html" xlink:title="https://gdal.org/en/latest/programs/gdal_raster_read.html" target="_blank">
<polygon fill="#cfe2ff" stroke="none" points="0,-185.25 0,-212.75 66.5,-212.75 66.5,-185.25 0,-185.25"/>
<polygon fill="none" stroke="black" points="0,-185.25 0,-212.75 66.5,-212.75 66.5,-185.25 0,-185.25"/>
<text text-anchor="start" x="18.25" y="-195.35" font-family="Courier New" font-weight="bold" font-size="12.00">read</text>
<polygon fill="none" stroke="black" points="0,-157.75 0,-185.25 66.5,-185.25 66.5,-157.75 0,-157.75"/>
<text text-anchor="start" x="7" y="-166.85" font-family="Courier New" font-size="12.00">n43.tif</text>
</a>
</g>
</g>
<!-- 1 -->
<g id="node2" class="node">
<title>1</title>
<g id="a_node2"><a xlink:href="https://gdal.org/en/latest/programs/gdal_raster_color_map.html" xlink:title="https://gdal.org/en/latest/programs/gdal_raster_color_map.html" target="_blank">
<polygon fill="#cfe2ff" stroke="none" points="102.5,-185.25 102.5,-212.75 311.5,-212.75 311.5,-185.25 102.5,-185.25"/>
<polygon fill="none" stroke="black" points="102.5,-185.25 102.5,-212.75 311.5,-212.75 311.5,-185.25 102.5,-185.25"/>
<text text-anchor="start" x="173.25" y="-195.35" font-family="Courier New" font-weight="bold" font-size="12.00">color&#45;map</text>
<polygon fill="none" stroke="black" points="102.5,-157.75 102.5,-185.25 311.5,-185.25 311.5,-157.75 102.5,-157.75"/>
<text text-anchor="start" x="109.5" y="-166.85" font-family="Courier New" font-size="12.00">&#45;&#45;color&#45;map color_file.txt</text>
</a>
</g>
</g>
<!-- 0&#45;&gt;1 -->
<g id="edge1" class="edge">
<title>0&#45;&gt;1</title>
<path fill="none" stroke="black" d="M66.15,-185.25C73.81,-185.25 82.43,-185.25 91.53,-185.25"/>
<polygon fill="black" stroke="black" points="91.32,-188.75 101.32,-185.25 91.32,-181.75 91.32,-188.75"/>
</g>
<!-- 2 -->
<g id="node3" class="node">
<title>2</title>
<polygon fill="#cfe2ff" stroke="none" points="347.5,-171.5 347.5,-199 384,-199 384,-171.5 347.5,-171.5"/>
<polygon fill="none" stroke="black" points="347.5,-171.5 347.5,-199 384,-199 384,-171.5 347.5,-171.5"/>
<text text-anchor="start" x="354.5" y="-181.6" font-family="Courier New" font-weight="bold" font-size="12.00">tee</text>
</g>
<!-- 1&#45;&gt;2 -->
<g id="edge2" class="edge">
<title>1&#45;&gt;2</title>
<path fill="none" stroke="black" d="M311.24,-185.25C320.2,-185.25 328.68,-185.25 336.13,-185.25"/>
<polygon fill="black" stroke="black" points="336.1,-188.75 346.1,-185.25 336.1,-181.75 336.1,-188.75"/>
</g>
<!-- 3 -->
<g id="node4" class="node">
<title>3</title>
<g id="a_node4"><a xlink:href="https://gdal.org/en/latest/programs/gdal_raster_write.html" xlink:title="https://gdal.org/en/latest/programs/gdal_raster_write.html" target="_blank">
<polygon fill="#cfe2ff" stroke="none" points="453.75,-257 453.75,-284.5 550.25,-284.5 550.25,-257 453.75,-257"/>
<polygon fill="none" stroke="black" points="453.75,-257 453.75,-284.5 550.25,-284.5 550.25,-257 453.75,-257"/>
<text text-anchor="start" x="483.25" y="-267.1" font-family="Courier New" font-weight="bold" font-size="12.00">write</text>
<polygon fill="none" stroke="black" points="453.75,-229.5 453.75,-257 550.25,-257 550.25,-229.5 453.75,-229.5"/>
<text text-anchor="start" x="460.75" y="-238.6" font-family="Courier New" font-size="12.00">colored.tif</text>
<polygon fill="none" stroke="black" points="453.75,-202 453.75,-229.5 550.25,-229.5 550.25,-202 453.75,-202"/>
<text text-anchor="start" x="460.75" y="-211.1" font-family="Courier New" font-size="12.00">&#45;&#45;overwrite</text>
</a>
</g>
</g>
<!-- 2&#45;&gt;3 -->
<g id="edge3" class="edge">
<title>2&#45;&gt;3</title>
<path fill="none" stroke="black" d="M383.75,-192.6C398.85,-199.12 421.81,-209.04 443.42,-218.37"/>
<polygon fill="black" stroke="black" points="441.92,-221.54 452.49,-222.29 444.7,-215.11 441.92,-221.54"/>
</g>
<!-- 4 -->
<g id="node5" class="node">
<title>4</title>
<g id="a_node5"><a xlink:href="https://gdal.org/en/latest/programs/gdal_raster_blend.html" xlink:title="https://gdal.org/en/latest/programs/gdal_raster_blend.html" target="_blank">
<polygon fill="#cfe2ff" stroke="none" points="420,-156 420,-183.5 584,-183.5 584,-156 420,-156"/>
<polygon fill="none" stroke="black" points="420,-156 420,-183.5 584,-183.5 584,-156 420,-156"/>
<text text-anchor="start" x="483.25" y="-166.1" font-family="Courier New" font-weight="bold" font-size="12.00">blend</text>
<polygon fill="none" stroke="black" points="420,-128.5 420,-156 584,-156 584,-128.5 420,-128.5"/>
<text text-anchor="start" x="427" y="-137.6" font-family="Courier New" font-size="12.00">&#45;&#45;operator hsv&#45;value</text>
<polygon fill="none" stroke="black" points="420,-101 420,-128.5 584,-128.5 584,-101 420,-101"/>
<text text-anchor="start" x="427" y="-110.1" font-family="Courier New" font-size="12.00">&#45;&#45;overlay</text>
</a>
</g>
</g>
<!-- 2&#45;&gt;4 -->
<g id="edge4" class="edge">
<title>2&#45;&gt;4</title>
<path fill="none" stroke="black" d="M383.75,-179.8C390.85,-177.53 399.69,-174.7 409.3,-171.62"/>
<polygon fill="black" stroke="black" points="410.1,-175.04 418.56,-168.66 407.97,-168.37 410.1,-175.04"/>
</g>
<!-- 9 -->
<g id="node10" class="node">
<title>9</title>
<g id="a_node10"><a xlink:href="https://gdal.org/en/latest/programs/gdal_raster_write.html" xlink:title="https://gdal.org/en/latest/programs/gdal_raster_write.html" target="_blank">
<polygon fill="#cfe2ff" stroke="none" points="620,-156 620,-183.5 791.5,-183.5 791.5,-156 620,-156"/>
<polygon fill="none" stroke="black" points="620,-156 620,-183.5 791.5,-183.5 791.5,-156 620,-156"/>
<text text-anchor="start" x="687" y="-166.1" font-family="Courier New" font-weight="bold" font-size="12.00">write</text>
<polygon fill="none" stroke="black" points="620,-128.5 620,-156 791.5,-156 791.5,-128.5 620,-128.5"/>
<text text-anchor="start" x="627" y="-137.6" font-family="Courier New" font-size="12.00">colored&#45;hillshade.tif</text>
<polygon fill="none" stroke="black" points="620,-101 620,-128.5 791.5,-128.5 791.5,-101 620,-101"/>
<text text-anchor="start" x="627" y="-110.1" font-family="Courier New" font-size="12.00">&#45;&#45;overwrite</text>
</a>
</g>
</g>
<!-- 4&#45;&gt;9 -->
<g id="edge9" class="edge">
<title>4&#45;&gt;9</title>
<path fill="none" stroke="black" d="M583.9,-142.25C592.11,-142.25 600.51,-142.25 608.86,-142.25"/>
<polygon fill="black" stroke="black" points="608.69,-145.75 618.69,-142.25 608.69,-138.75 608.69,-145.75"/>
</g>
<!-- 5 -->
<g id="node6" class="node">
<title>5</title>
<g id="a_node6"><a xlink:href="https://gdal.org/en/latest/programs/gdal_raster_read.html" xlink:title="https://gdal.org/en/latest/programs/gdal_raster_read.html" target="_blank">
<polygon fill="#cfe2ff" stroke="none" points="0,-98.25 0,-125.75 66.5,-125.75 66.5,-98.25 0,-98.25"/>
<polygon fill="none" stroke="black" points="0,-98.25 0,-125.75 66.5,-125.75 66.5,-98.25 0,-98.25"/>
<text text-anchor="start" x="18.25" y="-108.35" font-family="Courier New" font-weight="bold" font-size="12.00">read</text>
<polygon fill="none" stroke="black" points="0,-70.75 0,-98.25 66.5,-98.25 66.5,-70.75 0,-70.75"/>
<text text-anchor="start" x="7" y="-79.85" font-family="Courier New" font-size="12.00">n43.tif</text>
</a>
</g>
</g>
<!-- 6 -->
<g id="node7" class="node">
<title>6</title>
<g id="a_node7"><a xlink:href="https://gdal.org/en/latest/programs/gdal_raster_hillshade.html" xlink:title="https://gdal.org/en/latest/programs/gdal_raster_hillshade.html" target="_blank">
<polygon fill="#cfe2ff" stroke="none" points="166.25,-98.25 166.25,-125.75 247.75,-125.75 247.75,-98.25 166.25,-98.25"/>
<polygon fill="none" stroke="black" points="166.25,-98.25 166.25,-125.75 247.75,-125.75 247.75,-98.25 166.25,-98.25"/>
<text text-anchor="start" x="173.25" y="-108.35" font-family="Courier New" font-weight="bold" font-size="12.00">hillshade</text>
<polygon fill="none" stroke="black" points="166.25,-70.75 166.25,-98.25 247.75,-98.25 247.75,-70.75 166.25,-70.75"/>
<text text-anchor="start" x="173.25" y="-79.85" font-family="Courier New" font-size="12.00">&#45;z 30</text>
</a>
</g>
</g>
<!-- 5&#45;&gt;6 -->
<g id="edge5" class="edge">
<title>5&#45;&gt;6</title>
<path fill="none" stroke="black" d="M66.15,-98.25C91.05,-98.25 126.12,-98.25 154.92,-98.25"/>
<polygon fill="black" stroke="black" points="154.91,-101.75 164.9,-98.25 154.9,-94.75 154.91,-101.75"/>
</g>
<!-- 7 -->
<g id="node8" class="node">
<title>7</title>
<polygon fill="#cfe2ff" stroke="none" points="347.5,-84.5 347.5,-112 384,-112 384,-84.5 347.5,-84.5"/>
<polygon fill="none" stroke="black" points="347.5,-84.5 347.5,-112 384,-112 384,-84.5 347.5,-84.5"/>
<text text-anchor="start" x="354.5" y="-94.6" font-family="Courier New" font-weight="bold" font-size="12.00">tee</text>
</g>
<!-- 6&#45;&gt;7 -->
<g id="edge6" class="edge">
<title>6&#45;&gt;7</title>
<path fill="none" stroke="black" d="M247.55,-98.25C275.18,-98.25 311.4,-98.25 336.22,-98.25"/>
<polygon fill="black" stroke="black" points="336.22,-101.75 346.22,-98.25 336.22,-94.75 336.22,-101.75"/>
</g>
<!-- 7&#45;&gt;4 -->
<g id="edge8" class="edge">
<title>7&#45;&gt;4</title>
<path fill="none" stroke="black" d="M383.75,-103.82C390.85,-106.15 399.69,-109.05 409.3,-112.2"/>
<polygon fill="black" stroke="black" points="407.97,-115.44 418.56,-115.23 410.15,-108.79 407.97,-115.44"/>
</g>
<!-- 8 -->
<g id="node9" class="node">
<title>8</title>
<g id="a_node9"><a xlink:href="https://gdal.org/en/latest/programs/gdal_raster_write.html" xlink:title="https://gdal.org/en/latest/programs/gdal_raster_write.html" target="_blank">
<polygon fill="#cfe2ff" stroke="none" points="446.25,-55 446.25,-82.5 557.75,-82.5 557.75,-55 446.25,-55"/>
<polygon fill="none" stroke="black" points="446.25,-55 446.25,-82.5 557.75,-82.5 557.75,-55 446.25,-55"/>
<text text-anchor="start" x="483.25" y="-65.1" font-family="Courier New" font-weight="bold" font-size="12.00">write</text>
<polygon fill="none" stroke="black" points="446.25,-27.5 446.25,-55 557.75,-55 557.75,-27.5 446.25,-27.5"/>
<text text-anchor="start" x="453.25" y="-36.6" font-family="Courier New" font-size="12.00">hillshade.tif</text>
<polygon fill="none" stroke="black" points="446.25,0 446.25,-27.5 557.75,-27.5 557.75,0 446.25,0"/>
<text text-anchor="start" x="453.25" y="-9.1" font-family="Courier New" font-size="12.00">&#45;&#45;overwrite</text>
</a>
</g>
</g>
<!-- 7&#45;&gt;8 -->
<g id="edge7" class="edge">
<title>7&#45;&gt;8</title>
<path fill="none" stroke="black" d="M383.75,-91.03C397.15,-85.34 416.74,-77.03 436.08,-68.82"/>
<polygon fill="black" stroke="black" points="437.21,-72.13 445.05,-65.01 434.48,-65.69 437.21,-72.13"/>
</g>
</g>
</svg>
