<?xml version="1.0" encoding="UTF-8" standalone="no"?>
<!DOCTYPE svg PUBLIC "-//W3C//DTD SVG 1.1//EN"
 "http://www.w3.org/Graphics/SVG/1.1/DTD/svg11.dtd">
<!-- Generated by graphviz version 11.0.0 (20240428.1522)
 -->
<!-- Title: GDALG Workflow Pages: 1 -->
<svg width="473pt" height="483pt"
 viewBox="0.00 0.00 472.88 483.00" xmlns="http://www.w3.org/2000/svg" xmlns:xlink="http://www.w3.org/1999/xlink">
<g id="graph0" class="graph" transform="scale(1 1) rotate(0) translate(4 479)">
<title>GDALG Workflow</title>
<polygon fill="white" stroke="none" points="-4,4 -4,-479 468.88,-479 468.88,4 -4,4"/>
<!-- 0 -->
<g id="node1" class="node">
<title>0</title>
<polygon fill="#ffdd99" stroke="none" points="78.38,-444.5 78.38,-475 150.12,-475 150.12,-444.5 78.38,-444.5"/>
<polygon fill="none" stroke="black" points="78.38,-444.5 78.38,-475 150.12,-475 150.12,-444.5 78.38,-444.5"/>
<text text-anchor="start" x="97.75" y="-455.7" font-family="Courier,monospace" font-weight="bold" font-size="14.00">read</text>
<polygon fill="none" stroke="black" points="78.38,-414.75 78.38,-444.5 150.12,-444.5 150.12,-414.75 78.38,-414.75"/>
<text text-anchor="start" x="85.38" y="-424.2" font-family="Courier,monospace" font-size="14.00">n43.tif</text>
</g>
<!-- 1 -->
<g id="node2" class="node">
<title>1</title>
<g id="a_node2"><a xlink:href="https://gdal.org/en/latest/programs/gdal_raster_color_map.html" xlink:title="https://gdal.org/en/latest/programs/gdal_raster_color_map.html" target="_blank">
<polygon fill="#ffdd99" stroke="none" points="0,-348.25 0,-378.75 228.5,-378.75 228.5,-348.25 0,-348.25"/>
<polygon fill="none" stroke="black" points="0,-348.25 0,-378.75 228.5,-378.75 228.5,-348.25 0,-348.25"/>
<text text-anchor="start" x="77.12" y="-359.45" font-family="Courier,monospace" font-weight="bold" font-size="14.00">color&#45;map</text>
<polygon fill="none" stroke="black" points="0,-318.5 0,-348.25 228.5,-348.25 228.5,-318.5 0,-318.5"/>
<text text-anchor="start" x="7" y="-327.95" font-family="Courier,monospace" font-size="14.00">&#45;&#45;color&#45;map color_file.txt</text>
</a>
</g>
</g>
<!-- 0&#45;&gt;1 -->
<g id="edge1" class="edge">
<title>0&#45;&gt;1</title>
<path fill="none" stroke="black" d="M114.25,-414.83C114.25,-407.03 114.25,-398.46 114.25,-390.17"/>
<polygon fill="black" stroke="black" points="117.75,-390.25 114.25,-380.25 110.75,-390.25 117.75,-390.25"/>
</g>
<!-- 2 -->
<g id="node3" class="node">
<title>2</title>
<polygon fill="#ffdd99" stroke="none" points="94.88,-252 94.88,-282.5 133.62,-282.5 133.62,-252 94.88,-252"/>
<polygon fill="none" stroke="black" points="94.88,-252 94.88,-282.5 133.62,-282.5 133.62,-252 94.88,-252"/>
<text text-anchor="start" x="101.88" y="-263.2" font-family="Courier,monospace" font-weight="bold" font-size="14.00">tee</text>
</g>
<!-- 1&#45;&gt;2 -->
<g id="edge2" class="edge">
<title>1&#45;&gt;2</title>
<path fill="none" stroke="black" d="M114.25,-318.52C114.25,-310.39 114.25,-301.62 114.25,-293.72"/>
<polygon fill="black" stroke="black" points="117.75,-293.74 114.25,-283.74 110.75,-293.74 117.75,-293.74"/>
</g>
<!-- 3 -->
<g id="node4" class="node">
<title>3</title>
<polygon fill="#ffdd99" stroke="none" points="23.88,-185.5 23.88,-216 128.62,-216 128.62,-185.5 23.88,-185.5"/>
<polygon fill="none" stroke="black" points="23.88,-185.5 23.88,-216 128.62,-216 128.62,-185.5 23.88,-185.5"/>
<text text-anchor="start" x="55.62" y="-196.7" font-family="Courier,monospace" font-weight="bold" font-size="14.00">write</text>
<polygon fill="none" stroke="black" points="23.88,-155.75 23.88,-185.5 128.62,-185.5 128.62,-155.75 23.88,-155.75"/>
<text text-anchor="start" x="30.88" y="-165.2" font-family="Courier,monospace" font-size="14.00">colored.tif</text>
<polygon fill="none" stroke="black" points="23.88,-126 23.88,-155.75 128.62,-155.75 128.62,-126 23.88,-126"/>
<text text-anchor="start" x="30.88" y="-135.45" font-family="Courier,monospace" font-size="14.00">&#45;&#45;overwrite</text>
</g>
<!-- 2&#45;&gt;3 -->
<g id="edge3" class="edge">
<title>2&#45;&gt;3</title>
<path fill="none" stroke="black" d="M108.64,-252.34C105.76,-245.2 102.05,-235.98 98.16,-226.35"/>
<polygon fill="black" stroke="black" points="101.47,-225.19 94.48,-217.22 94.98,-227.81 101.47,-225.19"/>
</g>
<!-- 4 -->
<g id="node5" class="node">
<title>4</title>
<g id="a_node5"><a xlink:href="https://gdal.org/en/latest/programs/gdal_raster_blend.html" xlink:title="https://gdal.org/en/latest/programs/gdal_raster_blend.html" target="_blank">
<polygon fill="#ffdd99" stroke="none" points="146.75,-185.5 146.75,-216 325.75,-216 325.75,-185.5 146.75,-185.5"/>
<polygon fill="none" stroke="black" points="146.75,-185.5 146.75,-216 325.75,-216 325.75,-185.5 146.75,-185.5"/>
<text text-anchor="start" x="215.62" y="-196.7" font-family="Courier,monospace" font-weight="bold" font-size="14.00">blend</text>
<polygon fill="none" stroke="black" points="146.75,-155.75 146.75,-185.5 325.75,-185.5 325.75,-155.75 146.75,-155.75"/>
<text text-anchor="start" x="153.75" y="-165.2" font-family="Courier,monospace" font-size="14.00">&#45;&#45;operator=hsv&#45;value</text>
<polygon fill="none" stroke="black" points="146.75,-126 146.75,-155.75 325.75,-155.75 325.75,-126 146.75,-126"/>
<text text-anchor="start" x="153.75" y="-135.45" font-family="Courier,monospace" font-size="14.00">&#45;&#45;overlay</text>
</a>
</g>
</g>
<!-- 2&#45;&gt;4 -->
<g id="edge4" class="edge">
<title>2&#45;&gt;4</title>
<path fill="none" stroke="black" d="M132.51,-252.14C142.92,-244.1 156.66,-233.49 170.72,-222.63"/>
<polygon fill="black" stroke="black" points="172.51,-225.66 178.29,-216.78 168.23,-220.12 172.51,-225.66"/>
</g>
<!-- 9 -->
<g id="node10" class="node">
<title>9</title>
<polygon fill="#ffdd99" stroke="none" points="142.62,-59.5 142.62,-90 329.88,-90 329.88,-59.5 142.62,-59.5"/>
<polygon fill="none" stroke="black" points="142.62,-59.5 142.62,-90 329.88,-90 329.88,-59.5 142.62,-59.5"/>
<text text-anchor="start" x="215.62" y="-70.7" font-family="Courier,monospace" font-weight="bold" font-size="14.00">write</text>
<polygon fill="none" stroke="black" points="142.62,-29.75 142.62,-59.5 329.88,-59.5 329.88,-29.75 142.62,-29.75"/>
<text text-anchor="start" x="149.62" y="-39.2" font-family="Courier,monospace" font-size="14.00">colored&#45;hillshade.tif</text>
<polygon fill="none" stroke="black" points="142.62,0 142.62,-29.75 329.88,-29.75 329.88,0 142.62,0"/>
<text text-anchor="start" x="149.62" y="-9.45" font-family="Courier,monospace" font-size="14.00">&#45;&#45;overwrite</text>
</g>
<!-- 4&#45;&gt;9 -->
<g id="edge9" class="edge">
<title>4&#45;&gt;9</title>
<path fill="none" stroke="black" d="M236.25,-126.28C236.25,-118.13 236.25,-109.52 236.25,-101.08"/>
<polygon fill="black" stroke="black" points="239.75,-101.25 236.25,-91.25 232.75,-101.25 239.75,-101.25"/>
</g>
<!-- 5 -->
<g id="node6" class="node">
<title>5</title>
<polygon fill="#ffdd99" stroke="none" points="330.38,-444.5 330.38,-475 402.12,-475 402.12,-444.5 330.38,-444.5"/>
<polygon fill="none" stroke="black" points="330.38,-444.5 330.38,-475 402.12,-475 402.12,-444.5 330.38,-444.5"/>
<text text-anchor="start" x="349.75" y="-455.7" font-family="Courier,monospace" font-weight="bold" font-size="14.00">read</text>
<polygon fill="none" stroke="black" points="330.38,-414.75 330.38,-444.5 402.12,-444.5 402.12,-414.75 330.38,-414.75"/>
<text text-anchor="start" x="337.38" y="-424.2" font-family="Courier,monospace" font-size="14.00">n43.tif</text>
</g>
<!-- 6 -->
<g id="node7" class="node">
<title>6</title>
<g id="a_node7"><a xlink:href="https://gdal.org/en/latest/programs/gdal_raster_hillshade.html" xlink:title="https://gdal.org/en/latest/programs/gdal_raster_hillshade.html" target="_blank">
<polygon fill="#ffdd99" stroke="none" points="322.12,-348.25 322.12,-378.75 410.38,-378.75 410.38,-348.25 322.12,-348.25"/>
<polygon fill="none" stroke="black" points="322.12,-348.25 322.12,-378.75 410.38,-378.75 410.38,-348.25 322.12,-348.25"/>
<text text-anchor="start" x="329.12" y="-359.45" font-family="Courier,monospace" font-weight="bold" font-size="14.00">hillshade</text>
<polygon fill="none" stroke="black" points="322.12,-318.5 322.12,-348.25 410.38,-348.25 410.38,-318.5 322.12,-318.5"/>
<text text-anchor="start" x="329.12" y="-327.95" font-family="Courier,monospace" font-size="14.00">&#45;z 30</text>
</a>
</g>
</g>
<!-- 5&#45;&gt;6 -->
<g id="edge5" class="edge">
<title>5&#45;&gt;6</title>
<path fill="none" stroke="black" d="M366.25,-414.83C366.25,-407.03 366.25,-398.46 366.25,-390.17"/>
<polygon fill="black" stroke="black" points="369.75,-390.25 366.25,-380.25 362.75,-390.25 369.75,-390.25"/>
</g>
<!-- 7 -->
<g id="node8" class="node">
<title>7</title>
<polygon fill="#ffdd99" stroke="none" points="346.88,-252 346.88,-282.5 385.62,-282.5 385.62,-252 346.88,-252"/>
<polygon fill="none" stroke="black" points="346.88,-252 346.88,-282.5 385.62,-282.5 385.62,-252 346.88,-252"/>
<text text-anchor="start" x="353.88" y="-263.2" font-family="Courier,monospace" font-weight="bold" font-size="14.00">tee</text>
</g>
<!-- 6&#45;&gt;7 -->
<g id="edge6" class="edge">
<title>6&#45;&gt;7</title>
<path fill="none" stroke="black" d="M366.25,-318.52C366.25,-310.39 366.25,-301.62 366.25,-293.72"/>
<polygon fill="black" stroke="black" points="369.75,-293.74 366.25,-283.74 362.75,-293.74 369.75,-293.74"/>
</g>
<!-- 7&#45;&gt;4 -->
<g id="edge8" class="edge">
<title>7&#45;&gt;4</title>
<path fill="none" stroke="black" d="M347.07,-252.34C335.85,-244.21 320.93,-233.39 305.68,-222.34"/>
<polygon fill="black" stroke="black" points="308.06,-219.74 297.91,-216.71 303.96,-225.41 308.06,-219.74"/>
</g>
<!-- 8 -->
<g id="node9" class="node">
<title>8</title>
<polygon fill="#ffdd99" stroke="none" points="343.62,-185.5 343.62,-216 464.88,-216 464.88,-185.5 343.62,-185.5"/>
<polygon fill="none" stroke="black" points="343.62,-185.5 343.62,-216 464.88,-216 464.88,-185.5 343.62,-185.5"/>
<text text-anchor="start" x="383.62" y="-196.7" font-family="Courier,monospace" font-weight="bold" font-size="14.00">write</text>
<polygon fill="none" stroke="black" points="343.62,-155.75 343.62,-185.5 464.88,-185.5 464.88,-155.75 343.62,-155.75"/>
<text text-anchor="start" x="350.62" y="-165.2" font-family="Courier,monospace" font-size="14.00">hillshade.tif</text>
<polygon fill="none" stroke="black" points="343.62,-126 343.62,-155.75 464.88,-155.75 464.88,-126 343.62,-126"/>
<text text-anchor="start" x="350.62" y="-135.45" font-family="Courier,monospace" font-size="14.00">&#45;&#45;overwrite</text>
</g>
<!-- 7&#45;&gt;8 -->
<g id="edge7" class="edge">
<title>7&#45;&gt;8</title>
<path fill="none" stroke="black" d="M371.86,-252.34C374.74,-245.2 378.45,-235.98 382.34,-226.35"/>
<polygon fill="black" stroke="black" points="385.52,-227.81 386.02,-217.22 379.03,-225.19 385.52,-227.81"/>
</g>
</g>
</svg>
